<?xml version="1.0" encoding="utf-8"?>
<!DOCTYPE svg PUBLIC "-//W3C//DTD SVG 1.0//EN" "http://www.w3.org/TR/2001/REC-SVG-20010904/DTD/svg10.dtd">
<svg version="1.0" xmlns="http://www.w3.org/2000/svg" width="228px" height="247px" viewBox="0 0 228 247" preserveAspectRatio="xMidYMid meet">
 <g fill="#080515">
  <path d="M115.3 244.5 c-3.3 -1.4 -4.1 -2.9 -2.3 -4 2.1 -1.3 0.8 -2.5 -2.7 -2.6 -2.9 0 -16.6 -6.4 -55.2 -25.7 l-51.4 -25.7 0.1 -69.4 c0 -38.2 0.5 -69.8 0.9 -70.2 1.7 -1.6 106.6 -41.9 109.2 -41.9 1.5 0 23.9 8.5 49.7 18.9 28.7 11.6 47.3 18.6 47.9 18.1 0.7 -0.6 4.1 0.3 8.6 2.1 6.2 2.5 7.5 3.4 7.5 5.2 -0.1 1.4 -1.3 2.9 -3.1 3.9 -2.1 1.2 -2.5 1.7 -1.2 1.8 1.6 0 1.7 3.7 1.7 62.9 0 50.9 -0.3 63.2 -1.3 64.3 -0.8 0.7 -21.6 13 -46.4 27.3 -24.8 14.3 -44.9 26.4 -44.7 27 0.4 1.1 0 1.4 -8.6 6.2 -5.2 2.9 -5.7 3.1 -8.7 1.8z m65.3 -70.2 c1.9 -4.3 1.8 -8.8 -0.2 -10.4 -1.4 -1.1 -2 -0.9 -4.5 1.8 -4 4.5 -5.2 9.7 -3.3 13.5 l1.6 3 2.5 -2.3 c1.4 -1.3 3.2 -3.8 3.9 -5.6z m-117.6 -3.3 l0 -7 3.5 0 c2.1 0 5.3 1.1 8.3 3 l4.7 2.9 0.3 -6.6 c0.2 -3.6 -0.1 -7 -0.7 -7.6 -0.5 -0.5 -4.2 -2.8 -8.3 -5.1 l-7.3 -4.2 -0.5 -9.4 -0.5 -9.5 -6.5 -3.7 c-3.6 -2.1 -6.8 -3.8 -7.2 -3.8 -0.5 0 -0.8 2.9 -0.8 6.5 l0 6.5 -4.2 0 c-2.6 0 -5.7 -0.9 -8.5 -2.5 l-4.3 -2.6 0 7 0 7 8.3 4.8 8.2 4.9 0.3 9.2 0.3 9.1 6.7 4.1 c3.7 2.2 7 4 7.5 4 0.4 0 0.7 -3.1 0.7 -7z m98.5 -8.5 c4.3 -7.2 2.4 -16.4 -2.4 -12 -4.3 3.8 -6.3 11.4 -4.1 15.5 1.4 2.7 3.6 1.5 6.5 -3.5z m34.1 -22.1 c1.4 -3.7 1.5 -4.9 0.4 -7.4 -0.7 -1.6 -1.6 -3 -2 -3 -0.4 0 -2.2 1.6 -3.8 3.5 -4 4.4 -5 9.6 -2.7 13.1 l1.7 2.6 2.4 -2.3 c1.3 -1.2 3.1 -4.2 4 -6.5z m-21.5 -7.6 c2.4 -2.6 4.9 -7.9 4.9 -10.5 0 -1 -0.7 -2.9 -1.6 -4.2 l-1.6 -2.2 -2.4 2.2 c-1.3 1.2 -3.1 4.2 -4 6.5 -1.4 3.7 -1.5 4.9 -0.4 7.4 1.5 3.6 2.2 3.7 5.1 0.8z m-29.6 -63.5 c1.4 -0.5 1.1 -0.9 -1.6 -2.4 -2.5 -1.3 -3.9 -1.4 -5.3 -0.7 -1.9 1 -1.8 1.1 0.5 2.4 2.7 1.5 4 1.7 6.4 0.7z m-23 -13.3 c-0.3 -0.5 -1.5 -1 -2.6 -1 -1.1 0 -1.7 0.5 -1.4 1 0.3 0.6 1.5 1 2.6 1 1.1 0 1.7 -0.4 1.4 -1z"/>
 </g>
 <g fill="#0ffbf6">
  <path d="M78.5 226.4 c-19.2 -9.6 -44.7 -22.3 -56.5 -28.2 l-21.5 -10.7 0 -70.8 0 -70.8 9.5 -3.8 c9.2 -3.7 25.3 -10 70.5 -27.6 12.1 -4.8 24.6 -9.7 27.8 -10.9 l5.8 -2.3 17.2 6.9 c9.5 3.8 28.9 11.7 43.2 17.5 14.3 5.8 29.2 11.8 33 13.3 5 2 7 3.3 7 4.5 0 5 -2 4.4 -51.9 -15.8 l-48.7 -19.6 -52.7 20.5 c-29 11.3 -53 20.8 -53.5 21.3 -0.4 0.4 -0.8 30.6 -0.8 67.2 l-0.2 66.4 51.4 25.7 c28.3 14.1 51.7 25.7 52.1 25.7 0.5 0.1 0.9 -27.9 1 -62.1 l0.3 -62.3 56 -30.7 c30.8 -16.9 56.7 -30.7 57.6 -30.7 0.9 -0.1 2 0.6 2.3 1.5 0.3 0.9 0.6 30.9 0.6 66.8 l0 65.2 -5.2 3 c-2.9 1.7 -13.4 7.8 -23.3 13.6 -9.9 5.8 -24.7 14.4 -33 19.1 -8.2 4.6 -19.9 11.2 -25.8 14.6 -6 3.5 -11.5 6 -12.3 5.7 -1.7 -0.7 -1.8 -4 -0.1 -5.3 0.6 -0.6 21.7 -12.8 46.7 -27.3 25 -14.4 45.8 -26.7 46.2 -27.3 0.7 -1.1 1.2 -120.7 0.5 -120.7 -0.2 0 -18.1 9.7 -39.8 21.6 -21.6 11.9 -45.1 24.7 -52.1 28.6 l-12.8 6.9 -0.2 64.2 c-0.3 56.2 -0.5 64.2 -1.8 64.4 -0.8 0.1 -17.2 -7.7 -36.5 -17.3z"/>
 </g>
 <g fill="#ffffff">
  <path d="M172.7 185.2 c-2.2 -0.5 -4.7 -5.2 -4.7 -8.9 0 -11.4 9.9 -21.5 15.2 -15.5 6.6 7.4 -1.6 26.4 -10.5 24.4z"/>
  <path d="M53.5 178 l-8 -4.8 -0.5 -9.3 -0.5 -9.3 -8.2 -4.9 -8.3 -4.8 0 -10 c0 -12.1 0.7 -12.8 9.1 -8.1 3.2 1.8 6.2 3.2 6.8 3.2 0.6 0 1.1 -3.1 1.3 -7.2 0.2 -5.8 0.6 -7.3 1.9 -7.6 0.9 -0.2 5.4 1.9 10 4.5 l8.4 4.8 0.5 9.5 0.5 9.4 8 4.6 8 4.6 0 10.4 c0 12.6 -0.5 13 -9.6 7.6 -3.3 -2 -6.2 -3.6 -6.5 -3.6 -0.2 0 -0.4 3.3 -0.4 7.4 0 5.8 -0.3 7.5 -1.6 8 -2.3 0.9 -2.1 0.9 -10.9 -4.4z"/>
  <path d="M153.1 170.1 c-4.5 -4.5 -3.3 -15.6 2.4 -21.6 6.2 -6.6 12 -3.6 12 6.3 -0.1 6.7 -3.4 13.6 -7.7 15.8 -3.5 1.8 -4.4 1.8 -6.7 -0.5z"/>
  <path d="M185.1 150.4 c-2.4 -3 -2.8 -10.3 -1 -15.1 2.3 -6.3 9 -10.8 12.5 -8.5 5.7 3.8 3.8 18.6 -3.1 24 -3.7 2.9 -5.9 2.8 -8.4 -0.4z"/>
  <path d="M168.4 138.2 c-5.7 -3.8 -3.8 -18.6 3.1 -24 3.6 -2.8 5 -2.8 8 0.3 4.6 4.5 3 15.8 -3 21.8 -2.7 2.6 -5.9 3.4 -8.1 1.9z"/>
  <path d="M135.1 71.5 c-3.5 -1.9 -6.5 -3.6 -6.8 -3.9 -0.2 -0.2 2.1 -1.8 5.3 -3.6 l5.6 -3.3 6.9 3.4 c3.8 1.8 6.9 3.6 6.9 4.1 0 0.7 -9.9 6.8 -11 6.8 -0.3 0 -3.4 -1.6 -6.9 -3.5z"/>
  <path d="M113.8 59.1 c-2.7 -1.4 -4.8 -2.9 -4.8 -3.4 0 -0.4 2 -1.7 4.5 -2.9 2.5 -1.2 4.5 -2.4 4.5 -2.7 0 -0.4 -2 -1.4 -4.5 -2.4 -2.5 -1.1 -4.5 -2.2 -4.5 -2.6 0 -0.5 1.8 -1.6 4 -2.6 2.2 -1 4 -2.1 4 -2.4 0 -0.4 -3.8 -2.4 -8.5 -4.5 -4.7 -2.1 -8.5 -4.2 -8.5 -4.6 0 -0.4 1.8 -1.5 3.9 -2.5 l3.9 -1.7 9.6 3.8 c5.3 2.2 9.6 4.3 9.6 4.7 0 0.4 -1.9 1.6 -4.2 2.6 l-4.3 1.8 4.8 2.4 c2.6 1.2 4.7 2.6 4.7 3.1 0 0.4 -1.9 1.7 -4.2 2.9 l-4.3 2.2 5.3 2.5 c2.8 1.5 5.2 3 5.2 3.4 0 0.8 -9.5 5.9 -10.7 5.7 -0.4 -0.1 -2.9 -1.3 -5.5 -2.8z"/>
  <path d="M71.6 47.7 c-2 -1.2 -3.6 -2.5 -3.6 -2.9 0 -0.5 2.1 -1.8 4.8 -2.9 l4.7 -2.1 -3.8 -2 c-2.2 -1.1 -3.7 -2.1 -3.5 -2.4 0.3 -0.2 4.6 -2.2 9.6 -4.3 9.1 -3.9 9.2 -3.9 13.2 -2.4 2.2 0.9 4 1.9 4 2.3 0 0.4 -4.3 2.5 -9.6 4.7 l-9.6 4 3.6 2.2 c2 1.3 3.6 2.6 3.6 3 0 0.4 -2.2 1.6 -4.9 2.8 l-4.9 2 -3.6 -2z"/>
 </g>
</svg>